{
    "asset" : {
        "generator" : "Khronos glTF Blender I/O v1.4.40",
        "version" : "2.0"
    },
    "scene" : 0,
    "scenes" : [
        {
            "name" : "Scene",
            "nodes" : [
                0
            ]
        }
    ],
    "nodes" : [
        {
            "mesh" : 0,
            "name" : "bridap1"
        }
    ],
    "materials" : [
        {
            "doubleSided" : true,
            "name" : "blinn1SG.005",
            "pbrMetallicRoughness" : {
                "baseColorFactor" : [
                    0.4000000059604645,
                    0.4000000059604645,
                    0.4000000059604645,
                    1
                ],
                "metallicFactor" : 0
            }
        },
        {
            "doubleSided" : true,
            "name" : "blinn10SG.005",
            "pbrMetallicRoughness" : {
                "baseColorFactor" : [
                    0.5,
                    0.5,
                    0.5,
                    1
                ],
                "metallicFactor" : 0
            }
        },
        {
            "doubleSided" : true,
            "name" : "llave:blinn1SG.002",
            "pbrMetallicRoughness" : {
                "baseColorFactor" : [
                    0.05999999865889549,
                    0.05999999865889549,
                    0.05999999865889549,
                    1
                ],
                "metallicFactor" : 0
            }
        },
        {
            "doubleSided" : true,
            "name" : "llave:mia_material1SG1.002",
            "pbrMetallicRoughness" : {
                "baseColorFactor" : [
                    0.800000011920929,
                    0.800000011920929,
                    0.800000011920929,
                    1
                ],
                "metallicFactor" : 0,
                "roughnessFactor" : 0.5
            }
        },
        {
            "doubleSided" : true,
            "name" : "llave:lambert10SG.002",
            "pbrMetallicRoughness" : {
                "baseColorFactor" : [
                    0,
                    0,
                    0,
                    1
                ],
                "metallicFactor" : 0
            }
        },
        {
            "doubleSided" : true,
            "name" : "blinn7SG.002",
            "pbrMetallicRoughness" : {
                "baseColorFactor" : [
                    0.3400000035762787,
                    0.3400000035762787,
                    0.3400000035762787,
                    1
                ],
                "metallicFactor" : 0
            }
        },
        {
            "doubleSided" : true,
            "name" : "llave:lambert9SG.002",
            "pbrMetallicRoughness" : {
                "baseColorFactor" : [
                    0.14000000059604645,
                    0.14000000059604645,
                    0.14000000059604645,
                    1
                ],
                "metallicFactor" : 0
            }
        },
        {
            "doubleSided" : true,
            "name" : "llave:blinn7SG.002",
            "pbrMetallicRoughness" : {
                "baseColorFactor" : [
                    0.3400000035762787,
                    0.3400000035762787,
                    0.3400000035762787,
                    1
                ],
                "metallicFactor" : 0
            }
        }
    ],
    "meshes" : [
        {
            "name" : "bridap1.002",
            "primitives" : [
                {
                    "attributes" : {
                        "POSITION" : 0,
                        "NORMAL" : 1,
                        "TEXCOORD_0" : 2
                    },
                    "indices" : 3,
                    "material" : 0
                },
                {
                    "attributes" : {
                        "POSITION" : 4,
                        "NORMAL" : 5,
                        "TEXCOORD_0" : 6
                    },
                    "indices" : 7,
                    "material" : 1
                },
                {
                    "attributes" : {
                        "POSITION" : 8,
                        "NORMAL" : 9,
                        "TEXCOORD_0" : 10
                    },
                    "indices" : 11,
                    "material" : 2
                },
                {
                    "attributes" : {
                        "POSITION" : 12,
                        "NORMAL" : 13,
                        "TEXCOORD_0" : 14
                    },
                    "indices" : 15,
                    "material" : 3
                },
                {
                    "attributes" : {
                        "POSITION" : 16,
                        "NORMAL" : 17,
                        "TEXCOORD_0" : 18
                    },
                    "indices" : 19,
                    "material" : 4
                },
                {
                    "attributes" : {
                        "POSITION" : 20,
                        "NORMAL" : 21,
                        "TEXCOORD_0" : 22
                    },
                    "indices" : 23,
                    "material" : 5
                },
                {
                    "attributes" : {
                        "POSITION" : 24,
                        "NORMAL" : 25,
                        "TEXCOORD_0" : 26
                    },
                    "indices" : 27,
                    "material" : 6
                },
                {
                    "attributes" : {
                        "POSITION" : 28,
                        "NORMAL" : 29,
                        "TEXCOORD_0" : 30
                    },
                    "indices" : 31,
                    "material" : 7
                }
            ]
        }
    ],
    "accessors" : [
        {
            "bufferView" : 0,
            "componentType" : 5126,
            "count" : 173586,
            "max" : [
                0.14079836010932922,
                0.43951043486595154,
                0.047830730676651
            ],
            "min" : [
                -0.13784074783325195,
                0.16087114810943604,
                -0.1448269933462143
            ],
            "type" : "VEC3"
        },
        {
            "bufferView" : 1,
            "componentType" : 5126,
            "count" : 173586,
            "type" : "VEC3"
        },
        {
            "bufferView" : 2,
            "componentType" : 5126,
            "count" : 173586,
            "type" : "VEC2"
        },
        {
            "bufferView" : 3,
            "componentType" : 5125,
            "count" : 523455,
            "type" : "SCALAR"
        },
        {
            "bufferView" : 4,
            "componentType" : 5126,
            "count" : 1702,
            "max" : [
                0.129585862159729,
                0.429658442735672,
                0.012784336693584919
            ],
            "min" : [
                -0.12890300154685974,
                0.16972774267196655,
                -0.0042926776222884655
            ],
            "type" : "VEC3"
        },
        {
            "bufferView" : 5,
            "componentType" : 5126,
            "count" : 1702,
            "type" : "VEC3"
        },
        {
            "bufferView" : 6,
            "componentType" : 5126,
            "count" : 1702,
            "type" : "VEC2"
        },
        {
            "bufferView" : 7,
            "componentType" : 5123,
            "count" : 1728,
            "type" : "SCALAR"
        },
        {
            "bufferView" : 8,
            "componentType" : 5126,
            "count" : 3743,
            "max" : [
                0.15530230104923248,
                0.45543259382247925,
                0.13741250336170197
            ],
            "min" : [
                -0.15313522517681122,
                0.14476382732391357,
                0.04886241257190704
            ],
            "type" : "VEC3"
        },
        {
            "bufferView" : 9,
            "componentType" : 5126,
            "count" : 3743,
            "type" : "VEC3"
        },
        {
            "bufferView" : 10,
            "componentType" : 5126,
            "count" : 3743,
            "type" : "VEC2"
        },
        {
            "bufferView" : 11,
            "componentType" : 5123,
            "count" : 9816,
            "type" : "SCALAR"
        },
        {
            "bufferView" : 12,
            "componentType" : 5126,
            "count" : 34846,
            "max" : [
                0.3196652829647064,
                0.6187415719032288,
                0.13422703742980957
            ],
            "min" : [
                -0.31966522336006165,
                -0.018741577863693237,
                0.04295140132308006
            ],
            "type" : "VEC3"
        },
        {
            "bufferView" : 13,
            "componentType" : 5126,
            "count" : 34846,
            "type" : "VEC3"
        },
        {
            "bufferView" : 14,
            "componentType" : 5126,
            "count" : 34846,
            "type" : "VEC2"
        },
        {
            "bufferView" : 15,
            "componentType" : 5123,
            "count" : 90048,
            "type" : "SCALAR"
        },
        {
            "bufferView" : 16,
            "componentType" : 5126,
            "count" : 24,
            "max" : [
                0.17084844410419464,
                0.4712017774581909,
                0.10160165280103683
            ],
            "min" : [
                -0.168111652135849,
                0.12903423607349396,
                0.09169965237379074
            ],
            "type" : "VEC3"
        },
        {
            "bufferView" : 17,
            "componentType" : 5126,
            "count" : 24,
            "type" : "VEC3"
        },
        {
            "bufferView" : 18,
            "componentType" : 5126,
            "count" : 24,
            "type" : "VEC2"
        },
        {
            "bufferView" : 19,
            "componentType" : 5123,
            "count" : 48,
            "type" : "SCALAR"
        },
        {
            "bufferView" : 20,
            "componentType" : 5126,
            "count" : 8216,
            "max" : [
                0.13528001308441162,
                0.43494752049446106,
                0.04436745494604111
            ],
            "min" : [
                -0.13426776230335236,
                0.16516639292240143,
                -0.0039397720247507095
            ],
            "type" : "VEC3"
        },
        {
            "bufferView" : 21,
            "componentType" : 5126,
            "count" : 8216,
            "type" : "VEC3"
        },
        {
            "bufferView" : 22,
            "componentType" : 5126,
            "count" : 8216,
            "type" : "VEC2"
        },
        {
            "bufferView" : 23,
            "componentType" : 5123,
            "count" : 14400,
            "type" : "SCALAR"
        },
        {
            "bufferView" : 24,
            "componentType" : 5126,
            "count" : 3688,
            "max" : [
                0.3196652829647064,
                0.6187415719032288,
                0.14482712745666504
            ],
            "min" : [
                -0.31966522336006165,
                -0.018741577863693237,
                0.05300331488251686
            ],
            "type" : "VEC3"
        },
        {
            "bufferView" : 25,
            "componentType" : 5126,
            "count" : 3688,
            "type" : "VEC3"
        },
        {
            "bufferView" : 26,
            "componentType" : 5126,
            "count" : 3688,
            "type" : "VEC2"
        },
        {
            "bufferView" : 27,
            "componentType" : 5123,
            "count" : 16656,
            "type" : "SCALAR"
        },
        {
            "bufferView" : 28,
            "componentType" : 5126,
            "count" : 816,
            "max" : [
                0.14806601405143738,
                0.4491545259952545,
                0.054186202585697174
            ],
            "min" : [
                -0.14361530542373657,
                0.15121504664421082,
                -0.0005277142627164721
            ],
            "type" : "VEC3"
        },
        {
            "bufferView" : 29,
            "componentType" : 5126,
            "count" : 816,
            "type" : "VEC3"
        },
        {
            "bufferView" : 30,
            "componentType" : 5126,
            "count" : 816,
            "type" : "VEC2"
        },
        {
            "bufferView" : 31,
            "componentType" : 5123,
            "count" : 3264,
            "type" : "SCALAR"
        }
    ],
    "bufferViews" : [
        {
            "buffer" : 0,
            "byteLength" : 2083032,
            "byteOffset" : 0
        },
        {
            "buffer" : 0,
            "byteLength" : 2083032,
            "byteOffset" : 2083032
        },
        {
            "buffer" : 0,
            "byteLength" : 1388688,
            "byteOffset" : 4166064
        },
        {
            "buffer" : 0,
            "byteLength" : 2093820,
            "byteOffset" : 5554752
        },
        {
            "buffer" : 0,
            "byteLength" : 20424,
            "byteOffset" : 7648572
        },
        {
            "buffer" : 0,
            "byteLength" : 20424,
            "byteOffset" : 7668996
        },
        {
            "buffer" : 0,
            "byteLength" : 13616,
            "byteOffset" : 7689420
        },
        {
            "buffer" : 0,
            "byteLength" : 3456,
            "byteOffset" : 7703036
        },
        {
            "buffer" : 0,
            "byteLength" : 44916,
            "byteOffset" : 7706492
        },
        {
            "buffer" : 0,
            "byteLength" : 44916,
            "byteOffset" : 7751408
        },
        {
            "buffer" : 0,
            "byteLength" : 29944,
            "byteOffset" : 7796324
        },
        {
            "buffer" : 0,
            "byteLength" : 19632,
            "byteOffset" : 7826268
        },
        {
            "buffer" : 0,
            "byteLength" : 418152,
            "byteOffset" : 7845900
        },
        {
            "buffer" : 0,
            "byteLength" : 418152,
            "byteOffset" : 8264052
        },
        {
            "buffer" : 0,
            "byteLength" : 278768,
            "byteOffset" : 8682204
        },
        {
            "buffer" : 0,
            "byteLength" : 180096,
            "byteOffset" : 8960972
        },
        {
            "buffer" : 0,
            "byteLength" : 288,
            "byteOffset" : 9141068
        },
        {
            "buffer" : 0,
            "byteLength" : 288,
            "byteOffset" : 9141356
        },
        {
            "buffer" : 0,
            "byteLength" : 192,
            "byteOffset" : 9141644
        },
        {
            "buffer" : 0,
            "byteLength" : 96,
            "byteOffset" : 9141836
        },
        {
            "buffer" : 0,
            "byteLength" : 98592,
            "byteOffset" : 9141932
        },
        {
            "buffer" : 0,
            "byteLength" : 98592,
            "byteOffset" : 9240524
        },
        {
            "buffer" : 0,
            "byteLength" : 65728,
            "byteOffset" : 9339116
        },
        {
            "buffer" : 0,
            "byteLength" : 28800,
            "byteOffset" : 9404844
        },
        {
            "buffer" : 0,
            "byteLength" : 44256,
            "byteOffset" : 9433644
        },
        {
            "buffer" : 0,
            "byteLength" : 44256,
            "byteOffset" : 9477900
        },
        {
            "buffer" : 0,
            "byteLength" : 29504,
            "byteOffset" : 9522156
        },
        {
            "buffer" : 0,
            "byteLength" : 33312,
            "byteOffset" : 9551660
        },
        {
            "buffer" : 0,
            "byteLength" : 9792,
            "byteOffset" : 9584972
        },
        {
            "buffer" : 0,
            "byteLength" : 9792,
            "byteOffset" : 9594764
        },
        {
            "buffer" : 0,
            "byteLength" : 6528,
            "byteOffset" : 9604556
        },
        {
            "buffer" : 0,
            "byteLength" : 6528,
            "byteOffset" : 9611084
        }
    ],
    "buffers" : [
        {
            "byteLength" : 9617612,
            "uri" : "Bridas_Llaves.bin"
        }
    ]
}
