{
    "asset" : {
        "generator" : "Khronos glTF Blender I/O v1.4.40",
        "version" : "2.0"
    },
    "scene" : 0,
    "scenes" : [
        {
            "name" : "Scene",
            "nodes" : [
                0
            ]
        }
    ],
    "nodes" : [
        {
            "mesh" : 0,
            "name" : "bridasp0"
        }
    ],
    "materials" : [
        {
            "doubleSided" : true,
            "name" : "blinn1SG.001",
            "pbrMetallicRoughness" : {
                "baseColorFactor" : [
                    0.5,
                    0.5,
                    0.5,
                    1
                ],
                "metallicFactor" : 0
            }
        },
        {
            "doubleSided" : true,
            "name" : "blinn10SG.001",
            "pbrMetallicRoughness" : {
                "baseColorFactor" : [
                    0.30000001192092896,
                    0.30000001192092896,
                    0.30000001192092896,
                    1
                ],
                "metallicFactor" : 0
            }
        }
    ],
    "meshes" : [
        {
            "name" : "bridasp0.002",
            "primitives" : [
                {
                    "attributes" : {
                        "POSITION" : 0,
                        "NORMAL" : 1,
                        "TEXCOORD_0" : 2
                    },
                    "indices" : 3,
                    "material" : 0
                },
                {
                    "attributes" : {
                        "POSITION" : 4,
                        "NORMAL" : 5,
                        "TEXCOORD_0" : 6
                    },
                    "indices" : 7,
                    "material" : 1
                }
            ]
        }
    ],
    "accessors" : [
        {
            "bufferView" : 0,
            "componentType" : 5126,
            "count" : 173753,
            "max" : [
                0.1308198869228363,
                0.2893196642398834,
                0.1006200909614563
            ],
            "min" : [
                -0.14781920611858368,
                0.010680370032787323,
                -0.09203767776489258
            ],
            "type" : "VEC3"
        },
        {
            "bufferView" : 1,
            "componentType" : 5126,
            "count" : 173753,
            "type" : "VEC3"
        },
        {
            "bufferView" : 2,
            "componentType" : 5126,
            "count" : 173753,
            "type" : "VEC2"
        },
        {
            "bufferView" : 3,
            "componentType" : 5125,
            "count" : 523455,
            "type" : "SCALAR"
        },
        {
            "bufferView" : 4,
            "componentType" : 5126,
            "count" : 1728,
            "max" : [
                0.11960739642381668,
                0.2794676721096039,
                0.06557366251945496
            ],
            "min" : [
                -0.13888145983219147,
                0.019536959007382393,
                0.048496682196855545
            ],
            "type" : "VEC3"
        },
        {
            "bufferView" : 5,
            "componentType" : 5126,
            "count" : 1728,
            "type" : "VEC3"
        },
        {
            "bufferView" : 6,
            "componentType" : 5126,
            "count" : 1728,
            "type" : "VEC2"
        },
        {
            "bufferView" : 7,
            "componentType" : 5123,
            "count" : 1728,
            "type" : "SCALAR"
        }
    ],
    "bufferViews" : [
        {
            "buffer" : 0,
            "byteLength" : 2085036,
            "byteOffset" : 0
        },
        {
            "buffer" : 0,
            "byteLength" : 2085036,
            "byteOffset" : 2085036
        },
        {
            "buffer" : 0,
            "byteLength" : 1390024,
            "byteOffset" : 4170072
        },
        {
            "buffer" : 0,
            "byteLength" : 2093820,
            "byteOffset" : 5560096
        },
        {
            "buffer" : 0,
            "byteLength" : 20736,
            "byteOffset" : 7653916
        },
        {
            "buffer" : 0,
            "byteLength" : 20736,
            "byteOffset" : 7674652
        },
        {
            "buffer" : 0,
            "byteLength" : 13824,
            "byteOffset" : 7695388
        },
        {
            "buffer" : 0,
            "byteLength" : 3456,
            "byteOffset" : 7709212
        }
    ],
    "buffers" : [
        {
            "byteLength" : 7712668,
            "uri" : "Bridas.bin"
        }
    ]
}
