{
    "asset" : {
        "generator" : "Khronos glTF Blender I/O v1.2.75",
        "version" : "2.0"
    },
    "scene" : 0,
    "scenes" : [
        {
            "name" : "Scene",
            "nodes" : [
                0
            ]
        }
    ],
    "nodes" : [
        {
            "mesh" : 0,
            "name" : "DAU"
        }
    ],
    "materials" : [
        {
            "doubleSided" : true,
            "emissiveFactor" : [
                0,
                0,
                0
            ],
            "name" : "DAU",
            "pbrMetallicRoughness" : {
                "baseColorTexture" : {
                    "index" : 0,
                    "texCoord" : 0
                },
                "metallicFactor" : 0,
                "roughnessFactor" : 0.5771428346633911
            }
        }
    ],
    "meshes" : [
        {
            "name" : "Cube.010",
            "primitives" : [
                {
                    "attributes" : {
                        "POSITION" : 0,
                        "NORMAL" : 1,
                        "TEXCOORD_0" : 2,
                        "COLOR_0" : 3
                    },
                    "indices" : 4,
                    "material" : 0
                }
            ]
        }
    ],
    "textures" : [
        {
            "source" : 0
        }
    ],
    "images" : [
        {
            "mimeType" : "image/png",
            "name" : "DAU_MESH_UV.psd",
            "uri" : "DAU_MESH_UV_psd.png"
        }
    ],
    "accessors" : [
        {
            "bufferView" : 0,
            "componentType" : 5126,
            "count" : 3533,
            "max" : [
                0.272896409034729,
                0.19394254684448242,
                0.3450202941894531
            ],
            "min" : [
                -0.2757924795150757,
                9.5367431640625e-07,
                -0.3563826084136963
            ],
            "type" : "VEC3"
        },
        {
            "bufferView" : 1,
            "componentType" : 5126,
            "count" : 3533,
            "type" : "VEC3"
        },
        {
            "bufferView" : 2,
            "componentType" : 5126,
            "count" : 3533,
            "type" : "VEC2"
        },
        {
            "bufferView" : 3,
            "componentType" : 5126,
            "count" : 3533,
            "type" : "VEC4"
        },
        {
            "bufferView" : 4,
            "componentType" : 5123,
            "count" : 17961,
            "type" : "SCALAR"
        }
    ],
    "bufferViews" : [
        {
            "buffer" : 0,
            "byteLength" : 42396,
            "byteOffset" : 0
        },
        {
            "buffer" : 0,
            "byteLength" : 42396,
            "byteOffset" : 42396
        },
        {
            "buffer" : 0,
            "byteLength" : 28264,
            "byteOffset" : 84792
        },
        {
            "buffer" : 0,
            "byteLength" : 56528,
            "byteOffset" : 113056
        },
        {
            "buffer" : 0,
            "byteLength" : 35922,
            "byteOffset" : 169584
        }
    ],
    "buffers" : [
        {
            "byteLength" : 205508,
            "uri" : "DAU.bin"
        }
    ]
}
