{
    "asset" : {
        "generator" : "Khronos glTF Blender I/O v1.4.40",
        "version" : "2.0"
    },
    "scene" : 0,
    "scenes" : [
        {
            "name" : "Scene",
            "nodes" : [
                6
            ]
        }
    ],
    "nodes" : [
        {
            "mesh" : 0,
            "name" : "Pause",
            "translation" : [
                89.5,
                -0.5347071290016174,
                0
            ]
        },
        {
            "mesh" : 1,
            "name" : "Play",
            "translation" : [
                76.19999694824219,
                -0.5,
                -1
            ]
        },
        {
            "mesh" : 2,
            "name" : "VideoHolder",
            "rotation" : [
                1.2360264008748345e-05,
                0.7071067690849304,
                0.7071068286895752,
                1.2360264918243047e-05
            ],
            "scale" : [
                87.10868072509766,
                0.07556548714637756,
                48.99863815307617
            ],
            "translation" : [
                52.174190521240234,
                -34.93421173095703,
                1.2752690315246582
            ]
        },
        {
            "children" : [
                0,
                1,
                2
            ],
            "mesh" : 3,
            "name" : "BotonVideo3D",
            "rotation" : [
                1.2360264008748345e-05,
                -0.7071067690849304,
                -0.7071068286895752,
                1.2360264918243047e-05
            ],
            "scale" : [
                0.061715979129076004,
                0.0617159903049469,
                0.0617159903049469
            ],
            "translation" : [
                -1.3669999837875366,
                -0.279999703168869,
                -0.996999979019165
            ]
        },
        {
            "mesh" : 4,
            "name" : "Canvas",
            "rotation" : [
                0,
                -0.7071067690849304,
                -0.7071068286895752,
                5.338507591545749e-08
            ],
            "scale" : [
                0.75993412733078,
                0.42680060863494873,
                0.36807000637054443
            ],
            "translation" : [
                -4.482999801635742,
                -0.19999979436397552,
                -2.7736001014709473
            ]
        },
        {
            "mesh" : 5,
            "name" : "Close",
            "rotation" : [
                -0.7071068286895752,
                0,
                0,
                0.7071067094802856
            ],
            "scale" : [
                0.061716001480817795,
                0.061716001480817795,
                0.061716001480817795
            ],
            "translation" : [
                -7.7789998054504395,
                -0.279999703168869,
                -1.0299999713897705
            ]
        },
        {
            "children" : [
                3,
                4,
                5
            ],
            "mesh" : 6,
            "name" : "Hotspot",
            "rotation" : [
                0.7071068286895752,
                0,
                0,
                0.7071067094802856
            ],
            "scale" : [
                0.05099304020404816,
                0.05099304020404816,
                0.05099304020404816
            ],
            "translation" : [
                0,
                0.04691360145807266,
                0.7086660861968994
            ]
        }
    ],
    "materials" : [
        {
            "doubleSided" : true,
            "name" : "Pause",
            "pbrMetallicRoughness" : {
                "baseColorTexture" : {
                    "index" : 0,
                    "texCoord" : 0
                },
                "roughnessFactor" : 0.5527864098548889
            }
        },
        {
            "doubleSided" : true,
            "name" : "Play",
            "pbrMetallicRoughness" : {
                "baseColorTexture" : {
                    "index" : 1,
                    "texCoord" : 0
                },
                "roughnessFactor" : 0.5527864098548889
            }
        },
        {
            "doubleSided" : true,
            "name" : "video1",
            "pbrMetallicRoughness" : {
                "roughnessFactor" : 0.5527864098548889
            }
        },
        {
            "doubleSided" : true,
            "name" : "BotonVideo",
            "pbrMetallicRoughness" : {
                "baseColorTexture" : {
                    "index" : 2,
                    "texCoord" : 0
                },
                "roughnessFactor" : 0.5527864098548889
            }
        },
        {
            "doubleSided" : true,
            "name" : "CanvasMat",
            "pbrMetallicRoughness" : {
                "baseColorTexture" : {
                    "index" : 3,
                    "texCoord" : 0
                },
                "roughnessFactor" : 0.5527864098548889
            }
        },
        {
            "doubleSided" : true,
            "name" : "Close",
            "pbrMetallicRoughness" : {
                "baseColorTexture" : {
                    "index" : 4,
                    "texCoord" : 0
                },
                "roughnessFactor" : 0.5527864098548889
            }
        },
        {
            "doubleSided" : true,
            "name" : "bLUE",
            "pbrMetallicRoughness" : {
                "baseColorFactor" : [
                    0.00344453495927155,
                    0.0019219269743189216,
                    0.8000000715255737,
                    1
                ],
                "roughnessFactor" : 0.5527864098548889
            }
        },
        {
            "doubleSided" : true,
            "name" : "YELLOW",
            "pbrMetallicRoughness" : {
                "baseColorFactor" : [
                    0.8000000715255737,
                    0.7767667770385742,
                    0.07279261201620102,
                    1
                ],
                "roughnessFactor" : 0.5527864098548889
            }
        }
    ],
    "meshes" : [
        {
            "name" : "Mesh.006",
            "primitives" : [
                {
                    "attributes" : {
                        "POSITION" : 0,
                        "NORMAL" : 1,
                        "TEXCOORD_0" : 2
                    },
                    "indices" : 3,
                    "material" : 0
                }
            ]
        },
        {
            "name" : "Mesh.005",
            "primitives" : [
                {
                    "attributes" : {
                        "POSITION" : 4,
                        "NORMAL" : 5,
                        "TEXCOORD_0" : 6
                    },
                    "indices" : 3,
                    "material" : 1
                }
            ]
        },
        {
            "name" : "Mesh.004",
            "primitives" : [
                {
                    "attributes" : {
                        "POSITION" : 7,
                        "NORMAL" : 8,
                        "TEXCOORD_0" : 9
                    },
                    "indices" : 10,
                    "material" : 2
                }
            ]
        },
        {
            "name" : "Mesh.003",
            "primitives" : [
                {
                    "attributes" : {
                        "POSITION" : 11,
                        "NORMAL" : 12,
                        "TEXCOORD_0" : 13
                    },
                    "indices" : 3,
                    "material" : 3
                }
            ]
        },
        {
            "name" : "Mesh.001",
            "primitives" : [
                {
                    "attributes" : {
                        "POSITION" : 14,
                        "NORMAL" : 15,
                        "TEXCOORD_0" : 16
                    },
                    "indices" : 3,
                    "material" : 4
                }
            ]
        },
        {
            "name" : "Mesh.002",
            "primitives" : [
                {
                    "attributes" : {
                        "POSITION" : 17,
                        "NORMAL" : 18,
                        "TEXCOORD_0" : 19
                    },
                    "indices" : 3,
                    "material" : 5
                }
            ]
        },
        {
            "name" : "Mesh",
            "primitives" : [
                {
                    "attributes" : {
                        "POSITION" : 20,
                        "NORMAL" : 21,
                        "TEXCOORD_0" : 22
                    },
                    "indices" : 23,
                    "material" : 6
                },
                {
                    "attributes" : {
                        "POSITION" : 24,
                        "NORMAL" : 25,
                        "TEXCOORD_0" : 26
                    },
                    "indices" : 27,
                    "material" : 7
                }
            ]
        }
    ],
    "textures" : [
        {
            "sampler" : 0,
            "source" : 0
        },
        {
            "sampler" : 0,
            "source" : 1
        },
        {
            "sampler" : 0,
            "source" : 2
        },
        {
            "sampler" : 0,
            "source" : 3
        },
        {
            "sampler" : 0,
            "source" : 4
        }
    ],
    "images" : [
        {
            "mimeType" : "image/png",
            "name" : "Hotspot VR-V360-I360_3D_Pause_MainTex",
            "uri" : "Hotspot%20VR-V360-I360_3D_Pause_MainTex.png"
        },
        {
            "mimeType" : "image/png",
            "name" : "Hotspot VR-V360-I360_3D_Play_MainTex",
            "uri" : "Hotspot%20VR-V360-I360_3D_Play_MainTex.png"
        },
        {
            "mimeType" : "image/png",
            "name" : "Hotspot_VR-V360-I360_3D_BotonVideo_MainTex",
            "uri" : "Hotspot_VR-V360-I360_3D_BotonVideo_MainTex.png"
        },
        {
            "mimeType" : "image/png",
            "name" : "Hotspot VR-V360-I360_3D_CanvasMat_MainTex",
            "uri" : "Hotspot%20VR-V360-I360_3D_CanvasMat_MainTex.png"
        },
        {
            "mimeType" : "image/png",
            "name" : "Hotspot VR-V360-I360_3D_Close_MainTex",
            "uri" : "Hotspot%20VR-V360-I360_3D_Close_MainTex.png"
        }
    ],
    "accessors" : [
        {
            "bufferView" : 0,
            "componentType" : 5126,
            "count" : 368,
            "max" : [
                5,
                5,
                1.1102230246251565e-16
            ],
            "min" : [
                -5,
                -5,
                -1.1102230246251565e-16
            ],
            "type" : "VEC3"
        },
        {
            "bufferView" : 1,
            "componentType" : 5126,
            "count" : 368,
            "type" : "VEC3"
        },
        {
            "bufferView" : 2,
            "componentType" : 5126,
            "count" : 368,
            "type" : "VEC2"
        },
        {
            "bufferView" : 3,
            "componentType" : 5123,
            "count" : 600,
            "type" : "SCALAR"
        },
        {
            "bufferView" : 4,
            "componentType" : 5126,
            "count" : 368,
            "max" : [
                5,
                5,
                1.1102230246251565e-16
            ],
            "min" : [
                -5,
                -5,
                -1.1102230246251565e-16
            ],
            "type" : "VEC3"
        },
        {
            "bufferView" : 5,
            "componentType" : 5126,
            "count" : 368,
            "type" : "VEC3"
        },
        {
            "bufferView" : 6,
            "componentType" : 5126,
            "count" : 368,
            "type" : "VEC2"
        },
        {
            "bufferView" : 7,
            "componentType" : 5126,
            "count" : 4,
            "max" : [
                0.5,
                3.0616171314629196e-17,
                0.5
            ],
            "min" : [
                -0.5,
                -3.0616171314629196e-17,
                -0.5
            ],
            "type" : "VEC3"
        },
        {
            "bufferView" : 8,
            "componentType" : 5126,
            "count" : 4,
            "type" : "VEC3"
        },
        {
            "bufferView" : 9,
            "componentType" : 5126,
            "count" : 4,
            "type" : "VEC2"
        },
        {
            "bufferView" : 10,
            "componentType" : 5123,
            "count" : 6,
            "type" : "SCALAR"
        },
        {
            "bufferView" : 11,
            "componentType" : 5126,
            "count" : 368,
            "max" : [
                5,
                5,
                1.1102230246251565e-16
            ],
            "min" : [
                -5,
                -5,
                -1.1102230246251565e-16
            ],
            "type" : "VEC3"
        },
        {
            "bufferView" : 12,
            "componentType" : 5126,
            "count" : 368,
            "type" : "VEC3"
        },
        {
            "bufferView" : 13,
            "componentType" : 5126,
            "count" : 368,
            "type" : "VEC2"
        },
        {
            "bufferView" : 14,
            "componentType" : 5126,
            "count" : 368,
            "max" : [
                5,
                5,
                1.1102230246251565e-16
            ],
            "min" : [
                -5,
                -5,
                -1.1102230246251565e-16
            ],
            "type" : "VEC3"
        },
        {
            "bufferView" : 15,
            "componentType" : 5126,
            "count" : 368,
            "type" : "VEC3"
        },
        {
            "bufferView" : 16,
            "componentType" : 5126,
            "count" : 368,
            "type" : "VEC2"
        },
        {
            "bufferView" : 17,
            "componentType" : 5126,
            "count" : 368,
            "max" : [
                5,
                5,
                1.1102230246251565e-16
            ],
            "min" : [
                -5,
                -5,
                -1.1102230246251565e-16
            ],
            "type" : "VEC3"
        },
        {
            "bufferView" : 18,
            "componentType" : 5126,
            "count" : 368,
            "type" : "VEC3"
        },
        {
            "bufferView" : 19,
            "componentType" : 5126,
            "count" : 368,
            "type" : "VEC2"
        },
        {
            "bufferView" : 20,
            "componentType" : 5126,
            "count" : 349,
            "max" : [
                0.40000009536743164,
                0.16318540275096893,
                0.4000000059604645
            ],
            "min" : [
                -0.3999998867511749,
                -0.13568370044231415,
                -0.3999998867511749
            ],
            "type" : "VEC3"
        },
        {
            "bufferView" : 21,
            "componentType" : 5126,
            "count" : 349,
            "type" : "VEC3"
        },
        {
            "bufferView" : 22,
            "componentType" : 5126,
            "count" : 349,
            "type" : "VEC2"
        },
        {
            "bufferView" : 23,
            "componentType" : 5123,
            "count" : 1800,
            "type" : "SCALAR"
        },
        {
            "bufferView" : 24,
            "componentType" : 5126,
            "count" : 99,
            "max" : [
                0.22222819924354553,
                -0.13568370044231415,
                0.22222809493541718
            ],
            "min" : [
                -0.22222809493541718,
                -0.16318540275096893,
                -0.22222809493541718
            ],
            "type" : "VEC3"
        },
        {
            "bufferView" : 25,
            "componentType" : 5126,
            "count" : 99,
            "type" : "VEC3"
        },
        {
            "bufferView" : 26,
            "componentType" : 5126,
            "count" : 99,
            "type" : "VEC2"
        },
        {
            "bufferView" : 27,
            "componentType" : 5123,
            "count" : 360,
            "type" : "SCALAR"
        }
    ],
    "bufferViews" : [
        {
            "buffer" : 0,
            "byteLength" : 4416,
            "byteOffset" : 0
        },
        {
            "buffer" : 0,
            "byteLength" : 4416,
            "byteOffset" : 4416
        },
        {
            "buffer" : 0,
            "byteLength" : 2944,
            "byteOffset" : 8832
        },
        {
            "buffer" : 0,
            "byteLength" : 1200,
            "byteOffset" : 11776
        },
        {
            "buffer" : 0,
            "byteLength" : 4416,
            "byteOffset" : 12976
        },
        {
            "buffer" : 0,
            "byteLength" : 4416,
            "byteOffset" : 17392
        },
        {
            "buffer" : 0,
            "byteLength" : 2944,
            "byteOffset" : 21808
        },
        {
            "buffer" : 0,
            "byteLength" : 48,
            "byteOffset" : 24752
        },
        {
            "buffer" : 0,
            "byteLength" : 48,
            "byteOffset" : 24800
        },
        {
            "buffer" : 0,
            "byteLength" : 32,
            "byteOffset" : 24848
        },
        {
            "buffer" : 0,
            "byteLength" : 12,
            "byteOffset" : 24880
        },
        {
            "buffer" : 0,
            "byteLength" : 4416,
            "byteOffset" : 24892
        },
        {
            "buffer" : 0,
            "byteLength" : 4416,
            "byteOffset" : 29308
        },
        {
            "buffer" : 0,
            "byteLength" : 2944,
            "byteOffset" : 33724
        },
        {
            "buffer" : 0,
            "byteLength" : 4416,
            "byteOffset" : 36668
        },
        {
            "buffer" : 0,
            "byteLength" : 4416,
            "byteOffset" : 41084
        },
        {
            "buffer" : 0,
            "byteLength" : 2944,
            "byteOffset" : 45500
        },
        {
            "buffer" : 0,
            "byteLength" : 4416,
            "byteOffset" : 48444
        },
        {
            "buffer" : 0,
            "byteLength" : 4416,
            "byteOffset" : 52860
        },
        {
            "buffer" : 0,
            "byteLength" : 2944,
            "byteOffset" : 57276
        },
        {
            "buffer" : 0,
            "byteLength" : 4188,
            "byteOffset" : 60220
        },
        {
            "buffer" : 0,
            "byteLength" : 4188,
            "byteOffset" : 64408
        },
        {
            "buffer" : 0,
            "byteLength" : 2792,
            "byteOffset" : 68596
        },
        {
            "buffer" : 0,
            "byteLength" : 3600,
            "byteOffset" : 71388
        },
        {
            "buffer" : 0,
            "byteLength" : 1188,
            "byteOffset" : 74988
        },
        {
            "buffer" : 0,
            "byteLength" : 1188,
            "byteOffset" : 76176
        },
        {
            "buffer" : 0,
            "byteLength" : 792,
            "byteOffset" : 77364
        },
        {
            "buffer" : 0,
            "byteLength" : 720,
            "byteOffset" : 78156
        }
    ],
    "samplers" : [
        {
            "magFilter" : 9729,
            "minFilter" : 9986
        }
    ],
    "buffers" : [
        {
            "byteLength" : 78876,
            "uri" : "Hotspot.bin"
        }
    ]
}
